<svg width="20" height="20" viewBox="0 0 20 20" fill="none" xmlns="http://www.w3.org/2000/svg">
<g clip-path="url(#clip0_74_714)">
<path d="M0.833252 3.33334V8.33334H5.83325" stroke="black" stroke-width="2" stroke-linecap="round" stroke-linejoin="round"/>
<path d="M19.1667 16.6667V11.6667H14.1667" stroke="black" stroke-width="2" stroke-linecap="round" stroke-linejoin="round"/>
<path d="M17.0749 7.50001C16.6523 6.30567 15.934 5.23785 14.987 4.39619C14.0401 3.55454 12.8954 2.96648 11.6597 2.68689C10.424 2.4073 9.13762 2.4453 7.92059 2.79732C6.70356 3.14935 5.59554 3.80394 4.69992 4.70001L0.833252 8.33335M19.1666 11.6667L15.2999 15.3C14.4043 16.1961 13.2963 16.8507 12.0792 17.2027C10.8622 17.5547 9.57584 17.5927 8.34016 17.3131C7.10447 17.0335 5.95975 16.4455 5.01281 15.6038C4.06586 14.7622 3.34756 13.6944 2.92492 12.5" stroke="black" stroke-width="2" stroke-linecap="round" stroke-linejoin="round"/>
</g>
<defs>
<clipPath id="clip0_74_714">
<rect width="20" height="20" fill="white"/>
</clipPath>
</defs>
</svg>
